# xmcd CD database file
#
# Track frame offsets:
#	182
#	15537
#	27215
#	37235
#	48447
#	60557
#	72727
#	86212
#	98942
#	109515
#	126395
#	136302
#	146350
#	157292
#	167997
#	179530
#	190552
#	200342
#
# Disc length: 2838 seconds
#
# Revision: 1
# Processed by: cddbd v1.5.2PL0 Copyright (c) Steve Scherf et al.
# Submitted via: CDex 1.51
#
DISCID=0b0b1412
DTITLE=John Lee Hooker - Tupelo
DYEAR=1992
DGENRE=Blues
TTITLE0=Tupelo
TTITLE1=Boogie Chillum'
TTITLE2=Dimples
TTITLE3=Boom Boom 
TTITLE4=Frisco Blues
TTITLE5=I'm in the Mood
TTITLE6=Baby Lee
TTITLE7=Trouble Blues
TTITLE8=Old Time Shimmy
TTITLE9=Process
TTITLE10=Dusty Road
TTITLE11=I'm Leaving
TTITLE12=I want to Shoot
TTITLE13=Keep your hands to Yourself
TTITLE14=Let's make it
TTITLE15=Send me your Pillow
TTITLE16=Onions
TTITLE17=I'm so Exited
EXTD=YEAR: 1992
EXTT0=
EXTT1=
EXTT2=
EXTT3=
EXTT4=
EXTT5=
EXTT6=
EXTT7=
EXTT8=
EXTT9=
EXTT10=
EXTT11=
EXTT12=
EXTT13=
EXTT14=
EXTT15=
EXTT16=
EXTT17=
PLAYORDER=
